<?xml version="1.0" encoding="UTF-8"?>
<svg width="1200px" height="1200px" viewBox="0 0 1200 1200" version="1.1" xmlns="http://www.w3.org/2000/svg" xmlns:xlink="http://www.w3.org/1999/xlink">
    <title>Slice</title>
    <defs>
        <filter x="-1.3%" y="-1.5%" width="102.6%" height="103.0%" filterUnits="objectBoundingBox" id="filter-1">
            <feOffset dx="0" dy="2" in="SourceAlpha" result="shadowOffsetOuter1"></feOffset>
            <feGaussianBlur stdDeviation="1" in="shadowOffsetOuter1" result="shadowBlurOuter1"></feGaussianBlur>
            <feColorMatrix values="0 0 0 0 0.18859394   0 0 0 0 0.375143459   0 0 0 0 0.415421196  0 0 0 1 0" type="matrix" in="shadowBlurOuter1" result="shadowMatrixOuter1"></feColorMatrix>
            <feMerge>
                <feMergeNode in="shadowMatrixOuter1"></feMergeNode>
                <feMergeNode in="SourceGraphic"></feMergeNode>
            </feMerge>
        </filter>
        <path d="M430.056944,77.2152778 C430.056944,80.3634417 429.437155,83.2557739 428.19756,85.8923611 C426.957964,88.5289484 425.292282,90.811333 423.200465,92.7395833 C421.108647,94.6678337 418.66823,96.1631891 415.87914,97.2256944 C413.09005,98.2881998 410.107318,98.8194444 406.930854,98.8194444 L368,98.8194444 L368,15 L407.744335,15 C410.610899,15 413.206264,15.6296233 415.530506,16.8888889 C417.854747,18.1481544 419.830323,19.78124 421.457292,21.7881944 C423.084261,23.7951489 424.343207,26.0775335 425.234166,28.6354167 C426.125126,31.1932998 426.570598,33.7708203 426.570598,36.3680556 C426.570598,40.6180768 425.524705,44.4941955 423.432888,47.9965278 C421.34107,51.4988601 418.435812,54.1157321 414.717025,55.8472222 C419.442983,57.263896 423.181083,59.9004437 425.931435,63.7569444 C428.681788,67.6134452 430.056944,72.0995115 430.056944,77.2152778 Z M421.922138,75.7986111 C421.922138,73.7523046 421.573507,71.7650559 420.876235,69.8368056 C420.178962,67.9085552 419.191174,66.2164425 417.912841,64.7604167 C416.634508,63.3043909 415.123774,62.1238471 413.380593,61.21875 C411.637411,60.3136529 409.758678,59.8611111 407.744335,59.8611111 L376.134805,59.8611111 L376.134805,91.6180556 L406.930854,91.6180556 C409.022672,91.6180556 410.978879,91.1851895 412.799535,90.3194444 C414.620191,89.4536994 416.208399,88.2928314 417.564207,86.8368056 C418.920015,85.3807798 419.985276,83.688667 420.760023,81.7604167 C421.53477,79.8321663 421.922138,77.8449176 421.922138,75.7986111 Z M376.134805,22.2013889 L376.134805,53.1319444 L404.490413,53.1319444 C406.504755,53.1319444 408.383489,52.6990784 410.126671,51.8333333 C411.869852,50.9675883 413.361218,49.826396 414.600813,48.4097222 C415.840409,46.9930485 416.808829,45.359963 417.506101,43.5104167 C418.203374,41.6608704 418.552005,39.7129732 418.552005,37.6666667 C418.552005,35.541656 418.222742,33.5347317 417.564207,31.6458333 C416.905672,29.756935 415.975989,28.1238495 414.775131,26.7465278 C413.574273,25.3692061 412.16038,24.2673652 410.533411,23.4409722 C408.906442,22.6145792 407.12455,22.2013889 405.187682,22.2013889 L376.134805,22.2013889 Z M469.91749,100 C465.501431,100 461.453437,99.1539436 457.773388,97.4618056 C454.093338,95.7696675 450.897554,93.4479314 448.185938,90.4965278 C445.474323,87.5451241 443.363169,84.141223 441.852411,80.2847222 C440.341654,76.4282215 439.586287,72.2963183 439.586287,67.8888889 C439.586287,63.5601635 440.341654,59.4872876 441.852411,55.6701389 C443.363169,51.8529902 445.454955,48.5081162 448.127833,45.6354167 C450.800711,42.7627171 453.996495,40.4803325 457.715282,38.7881944 C461.434069,37.0960564 465.462694,36.25 469.801278,36.25 C474.217338,36.25 478.265331,37.0960564 481.945381,38.7881944 C485.62543,40.4803325 488.782478,42.7823928 491.416618,45.6944444 C494.050759,48.606496 496.103808,51.95137 497.575828,55.7291667 C499.047848,59.5069633 499.783847,63.5208121 499.783847,67.7708333 L499.783847,69.6597222 C499.783847,70.289355 499.74511,70.722221 499.667635,70.9583333 L447.837304,70.9583333 C448.069728,74.2639054 448.825095,77.3136434 450.103428,80.1076389 C451.381761,82.9016343 453.028074,85.321749 455.042417,87.3680556 C457.05676,89.4143621 459.361598,91.0080961 461.957002,92.1493056 C464.552405,93.290515 467.322085,93.8611111 470.266124,93.8611111 C472.202992,93.8611111 474.139831,93.5856509 476.0767,93.0347222 C478.013568,92.4837935 479.79546,91.7361158 481.422429,90.7916667 C483.049398,89.8472175 484.521396,88.6863495 485.838466,87.3090278 C487.155536,85.9317061 488.162693,84.4166749 488.859965,82.7638889 L495.716444,84.6527778 C494.786747,86.9351966 493.469697,89.0011482 491.765253,90.8506944 C490.060809,92.7002407 488.085233,94.3136505 485.838466,95.6909722 C483.591699,97.0682939 481.112545,98.1307833 478.40093,98.8784722 C475.689314,99.6261611 472.861529,100 469.91749,100 Z M492.230099,64.8194444 C491.997675,61.5138724 491.242307,58.5034858 489.963974,55.7881944 C488.685641,53.0729031 487.058697,50.7314913 485.083091,48.7638889 C483.107486,46.7962865 480.822016,45.2615796 478.226612,44.1597222 C475.631209,43.0578649 472.861529,42.5069444 469.91749,42.5069444 C466.97345,42.5069444 464.184402,43.0578649 461.550261,44.1597222 C458.916121,45.2615796 456.611282,46.7962865 454.635677,48.7638889 C452.660071,50.7314913 451.071863,53.0925788 449.871005,55.8472222 C448.670147,58.6018656 447.953517,61.5925765 447.721092,64.8194444 L492.230099,64.8194444 Z M538.133643,100 C533.717584,100 529.66959,99.1539436 525.989541,97.4618056 C522.309492,95.7696675 519.113707,93.4479314 516.402092,90.4965278 C513.690476,87.5451241 511.579322,84.141223 510.068565,80.2847222 C508.557808,76.4282215 507.80244,72.2963183 507.80244,67.8888889 C507.80244,63.5601635 508.557808,59.4872876 510.068565,55.6701389 C511.579322,51.8529902 513.671108,48.5081162 516.343986,45.6354167 C519.016864,42.7627171 522.212648,40.4803325 525.931435,38.7881944 C529.650222,37.0960564 533.678847,36.25 538.017432,36.25 C542.433491,36.25 546.481485,37.0960564 550.161534,38.7881944 C553.841583,40.4803325 556.998631,42.7823928 559.632772,45.6944444 C562.266912,48.606496 564.319962,51.95137 565.791981,55.7291667 C567.264001,59.5069633 568,63.5208121 568,67.7708333 L568,69.6597222 C568,70.289355 567.961263,70.722221 567.883788,70.9583333 L516.053457,70.9583333 C516.285881,74.2639054 517.041249,77.3136434 518.319582,80.1076389 C519.597915,82.9016343 521.244228,85.321749 523.258571,87.3680556 C525.272913,89.4143621 527.577752,91.0080961 530.173155,92.1493056 C532.768558,93.290515 535.538238,93.8611111 538.482278,93.8611111 C540.419146,93.8611111 542.355985,93.5856509 544.292853,93.0347222 C546.229721,92.4837935 548.011613,91.7361158 549.638582,90.7916667 C551.265551,89.8472175 552.737549,88.6863495 554.054619,87.3090278 C555.37169,85.9317061 556.378846,84.4166749 557.076119,82.7638889 L563.932597,84.6527778 C563.002901,86.9351966 561.68585,89.0011482 559.981406,90.8506944 C558.276962,92.7002407 556.301386,94.3136505 554.054619,95.6909722 C551.807852,97.0682939 549.328698,98.1307833 546.617083,98.8784722 C543.905468,99.6261611 541.077683,100 538.133643,100 Z M560.446252,64.8194444 C560.213828,61.5138724 559.458461,58.5034858 558.180128,55.7881944 C556.901795,53.0729031 555.27485,50.7314913 553.299245,48.7638889 C551.323639,46.7962865 549.038169,45.2615796 546.442766,44.1597222 C543.847363,43.0578649 541.077683,42.5069444 538.133643,42.5069444 C535.189604,42.5069444 532.400555,43.0578649 529.766415,44.1597222 C527.132274,45.2615796 524.827436,46.7962865 522.85183,48.7638889 C520.876225,50.7314913 519.288017,53.0925788 518.087159,55.8472222 C516.8863,58.6018656 516.16967,61.5925765 515.937246,64.8194444 L560.446252,64.8194444 Z" id="path-2"></path>
    </defs>
    <g id="MakeCode-Social-Card" stroke="none" stroke-width="1" fill="none" fill-rule="evenodd">
        <g id="BF_WhiteOnBlueIcon_Thick_Respaced">
            <rect id="Rectangle" fill="#4EBED7" x="0" y="0" width="1200" height="1200"></rect>
            <path d="M820.999902,106.597017 L1131.46403,119.739027 L1274.17889,404.230033 L790.873057,1138.6928 L529.866906,1271.68207 L337.391286,893.927397 L658.584902,348.606164 L820.999902,106.597017 Z" id="Rectangle" stroke="#979797" fill="#4EA6B9" transform="translate(805.788235, 689.220089) rotate(-63.000000) translate(-805.788235, -689.220089) "></path>
            <g id="Group" filter="url(#filter-1)" transform="translate(293.000000, 140.000000)" fill="#FFFFFF" fill-rule="nonzero">
                <path d="M392.056604,231.572093 C384.308176,225.483721 375.45283,221.609302 366.044025,219.395349 L358.849057,217.734884 L361.616352,211.646512 C363.27673,207.772093 364.383648,202.790698 364.383648,198.362791 C364.383648,176.776744 347.226415,159.618605 326.194969,159.618605 L273.062893,159.618605 L273.062893,218.288372 L231,218.288372 L231,138.586047 C231,132.497674 233.213836,127.516279 237.08805,123.088372 C240.962264,119.213953 246.496855,117 252.031447,117 L326.194969,117 C370.471698,117 407,153.530233 407,197.809302 C407,208.87907 404.786164,219.395349 400.358491,229.35814 L397.591195,236 L392.056604,231.572093 Z" id="Path"></path>
                <path d="M231.341866,391 L231.341866,284.966102 L273.855765,284.966102 L273.855765,348.475989 L342.871835,348.475989 C362.196335,348.475989 378.760192,334.117232 381.520835,315.340395 C383.17722,304.295198 379.864449,293.25 372.134649,284.966102 C364.404849,276.682203 352.810149,271.159605 341.21545,271.159605 L22.1800395,271.159605 L0,271.159605 L152.939611,0 L459,0 L434.911235,42.5240113 L177.233268,42.5240113 L69.5681985,229.740113 L341.767578,229.187853 C384.833606,229.187853 419.617705,261.218927 423.482605,304.295198 C425.138991,328.594633 416.304934,351.789548 398.63682,368.357345 C383.17722,382.716102 362.748463,390.44774 341.767578,390.44774 L231.341866,391 Z" id="Path"></path>
                <polygon id="Path" points="447 459.440324 564.947195 254.932793 461.330033 61.0435889 483.376238 25 614 254.932793 471.80198 502"></polygon>
                <polygon id="Path" points="142.040506 526 14 304 60.0102453 304 166.324051 483.477612 420.848536 483.477612 450 526"></polygon>
            </g>
        </g>
        <g id="BuildBee---4ebed7" transform="translate(31.000000, 900.000000)" fill="#FFFFFF" fill-rule="nonzero">
            <path d="M135.98222,99.9838123 C130.095621,100.160108 124.255336,98.8941557 118.971505,96.2965346 C114.507841,93.98324 110.662143,90.6382887 107.754679,86.5402447 C104.915646,82.4185109 102.883785,77.7970972 101.766483,72.9202524 C100.586252,67.8772606 99.9935104,62.714934 100,57.5360123 L100,15 L112.170752,15 L112.170752,57.5360123 C112.166071,61.5184595 112.568549,65.4909765 113.371924,69.391757 C114.059566,72.8923642 115.389051,76.2358966 117.293397,79.2539017 C119.115908,82.0438234 121.589003,84.3504054 124.500429,85.9756855 C127.999936,87.7797395 131.90517,88.6545981 135.840906,88.5162022 C139.834179,88.6602056 143.796509,87.766591 147.340361,85.922758 C150.288014,84.2731619 152.781923,81.9217227 154.600386,79.0774769 C156.497819,76.046936 157.815521,72.6909446 158.48653,69.1800472 C159.248257,65.3453457 159.632812,61.4454532 159.634709,57.5360123 L159.634709,15 L172,15 L172,57.5360123 C172.015361,62.8845986 171.386707,68.2156429 170.1273,73.4142418 C168.96206,78.2840227 166.869025,82.8842104 163.962461,86.9636642 C161.031923,90.9707682 157.178512,94.2142858 152.72797,96.4200319 C147.507111,98.9148708 141.767865,100.13628 135.98222,99.9838123 L135.98222,99.9838123 Z" id="Path"></path>
            <rect id="Rectangle" x="191" y="15" width="12" height="85"></rect>
            <polygon id="Path" points="219 100 219 15 231.170033 15 231.170033 88.5648632 277 88.5648632 277 100"></polygon>
            <path d="M285,99.996092 L285,15.0091526 L314.401519,15.0091526 C320.457159,14.88452 326.471879,16.033953 332.060089,18.3837646 C336.916194,20.4791503 341.260686,23.6125009 344.791918,27.5662615 C348.22362,31.5145916 350.829996,36.1173372 352.455737,41.1002318 C354.165364,46.3693605 355.023873,51.8801404 354.998572,57.4226973 C355.04273,63.3321877 354.062737,69.2042193 352.102566,74.7753075 C350.318713,79.7901696 347.523101,84.3798298 343.891331,88.2559945 C340.266795,92.0267168 335.89234,94.9861809 331.053551,96.9411801 C325.73971,99.0347952 320.072683,100.072244 314.366202,99.996092 L285,99.996092 Z M314.366974,87.5687532 C318.590262,87.65313 322.784193,86.850801 326.677005,85.2137564 C330.077657,83.7521951 333.107887,81.5500499 335.545904,78.768502 C337.951671,75.8951229 339.76058,72.5725585 340.867243,68.9943801 C342.155853,64.953699 342.790562,60.7336978 342.747449,56.4934197 C342.796079,52.2152548 342.149114,47.9575479 340.831767,43.8862189 C339.661948,40.3105485 337.786202,37.0051417 335.315312,34.1652171 C332.864636,31.4369737 329.834613,29.2894234 326.446414,27.8793235 C322.584322,26.3164397 318.444896,25.5514444 314.278285,25.6305671 L297.25,25.6305671 L297.25,87.6041667 L314.366974,87.5687532 Z" id="Shape"></path>
            <g id="B">
                <path d="M73.1498525,29.0382917 C73.2683342,31.1467199 72.8827423,33.2528939 72.0268056,35.172581 C75.8501692,36.1254699 79.4379023,37.8892248 82.560211,40.3508772 C84.1418242,36.8028681 84.9481677,32.9414017 84.9230769,29.0382917 C84.9011291,13.0022173 72.2623529,0.010968582 56.6720438,3.11641551e-15 L28.8088632,3.11641551e-15 C25.6007167,3.11641551e-15 23,2.67507943 23,5.97495714 L23,34.2365044 L34.7532666,34.2365044 L34.7532666,12.1092465 L56.6720438,12.1092465 C65.76493,12.10924 73.1391676,19.6854174 73.1498525,29.0382917 Z" id="Path"></path>
                <path d="M91.9274562,69.0578101 C90.5852487,53.6719111 77.6670088,41.9238679 62.2925573,42.1073839 L-1.25711407e-14,42.2463036 L-1.25711407e-14,53.9552517 L62.3715837,53.9552517 C67.4663552,54.0361512 72.3119515,56.1835527 75.8060712,59.9089541 C79.0341047,63.5526468 80.5138521,68.4324519 79.8561741,73.2650931 C78.5518418,81.800396 71.1642023,88.0509542 62.5691497,87.8913553 L34.4159958,87.8913553 L34.4159958,63.4216385 L22.4039835,63.4216385 L22.4039835,99.9972169 L62.1937744,99.9972169 C69.9584985,100.103043 77.4629179,97.1873035 83.1357695,91.8604903 C89.3096385,85.9600826 92.534371,77.5962103 91.9274562,69.0578101 Z" id="Path"></path>
            </g>
            <g id="Bee">
                <use xlink:href="#path-2"></use>
                <use xlink:href="#path-2"></use>
            </g>
        </g>
        <text id="MAKECODE-FOR-3D-PRIN" font-family="Poppins-Medium, Poppins" font-size="40" font-weight="400" fill="#FFFAFA">
            <tspan x="48.14" y="1042">MAKECODE FOR 3D PRINTERS</tspan>
        </text>
    </g>
</svg>