<?xml version="1.0" encoding="UTF-8"?>
<svg width="324px" height="57px" viewBox="0 0 324 57" version="1.1" xmlns="http://www.w3.org/2000/svg" xmlns:xlink="http://www.w3.org/1999/xlink">
    <!-- Generator: Sketch 64 (93537) - https://sketch.com -->
    <title>BuildBee - 4ebed7</title>
    <desc>Created with Sketch.</desc>
    <defs>
        <path d="M255.118,54.922 C255.118,56.6820088 254.766004,58.2989926 254.062,59.773 C253.357996,61.2470074 252.412006,62.5229946 251.224,63.601 C250.035994,64.6790054 248.650008,65.514997 247.066,66.109 C245.481992,66.703003 243.788009,67 241.984,67 L219.874,67 L219.874,20.14 L242.446,20.14 C244.074008,20.14 245.547993,20.4919965 246.868,21.196 C248.188007,21.9000035 249.309995,22.8129944 250.234,23.935 C251.158005,25.0570056 251.872997,26.3329928 252.379,27.763 C252.885003,29.1930071 253.138,30.6339927 253.138,32.086 C253.138,34.4620119 252.544006,36.6289902 251.356,38.587 C250.167994,40.5450098 248.518011,42.0079952 246.406,42.976 C249.090013,43.768004 251.212992,45.2419892 252.775,47.398 C254.337008,49.5540108 255.118,52.0619857 255.118,54.922 Z M250.498,54.13 C250.498,52.9859943 250.300002,51.8750054 249.904,50.797 C249.507998,49.7189946 248.947004,48.7730041 248.221,47.959 C247.494996,47.1449959 246.637005,46.4850025 245.647,45.979 C244.656995,45.4729975 243.590006,45.22 242.446,45.22 L224.494,45.22 L224.494,62.974 L241.984,62.974 C243.172006,62.974 244.282995,62.7320024 245.317,62.248 C246.351005,61.7639976 247.252996,61.1150041 248.023,60.301 C248.793004,59.4869959 249.397998,58.5410054 249.838,57.463 C250.278002,56.3849946 250.498,55.2740057 250.498,54.13 Z M224.494,24.166 L224.494,41.458 L240.598,41.458 C241.742006,41.458 242.808995,41.2160024 243.799,40.732 C244.789005,40.2479976 245.635996,39.610004 246.34,38.818 C247.044004,38.025996 247.593998,37.1130052 247.99,36.079 C248.386002,35.0449948 248.584,33.9560057 248.584,32.812 C248.584,31.6239941 248.397002,30.5020053 248.023,29.446 C247.648998,28.3899947 247.121003,27.4770038 246.439,26.707 C245.756997,25.9369961 244.954005,25.3210023 244.03,24.859 C243.105995,24.3969977 242.094005,24.166 240.994,24.166 L224.494,24.166 Z M277.756,67.66 C275.247987,67.66 272.94901,67.1870047 270.859,66.241 C268.76899,65.2949953 266.954008,63.9970082 265.414,62.347 C263.873992,60.6969917 262.675004,58.7940108 261.817,56.638 C260.958996,54.4819892 260.53,52.1720123 260.53,49.708 C260.53,47.2879879 260.958996,45.0110107 261.817,42.877 C262.675004,40.7429893 263.862992,38.873008 265.381,37.267 C266.899008,35.660992 268.713989,34.3850047 270.826,33.439 C272.938011,32.4929953 275.225988,32.02 277.69,32.02 C280.198013,32.02 282.49699,32.4929953 284.587,33.439 C286.67701,34.3850047 288.469993,35.6719919 289.966,37.3 C291.462007,38.9280081 292.627996,40.7979894 293.464,42.91 C294.300004,45.0220106 294.718,47.2659881 294.718,49.642 L294.718,50.698 C294.718,51.0500018 294.696,51.2919993 294.652,51.424 L265.216,51.424 C265.348001,53.2720092 265.776996,54.9769922 266.503,56.539 C267.229004,58.1010078 268.163994,59.4539943 269.308,60.598 C270.452006,61.7420057 271.760993,62.6329968 273.235,63.271 C274.709007,63.9090032 276.281992,64.228 277.954,64.228 C279.054006,64.228 280.153995,64.0740015 281.254,63.766 C282.354005,63.4579985 283.365995,63.0400026 284.29,62.512 C285.214005,61.9839974 286.049996,61.3350038 286.798,60.565 C287.546004,59.7949962 288.117998,58.9480046 288.514,58.024 L292.408,59.08 C291.879997,60.3560064 291.132005,61.5109948 290.164,62.545 C289.195995,63.5790052 288.074006,64.4809961 286.798,65.251 C285.521994,66.0210038 284.114008,66.6149979 282.574,67.033 C281.033992,67.4510021 279.428008,67.66 277.756,67.66 Z M290.428,47.992 C290.295999,46.1439908 289.867004,44.4610076 289.141,42.943 C288.414996,41.4249924 287.491006,40.1160055 286.369,39.016 C285.246994,37.9159945 283.949007,37.0580031 282.475,36.442 C281.000993,35.8259969 279.428008,35.518 277.756,35.518 C276.083992,35.518 274.500007,35.8259969 273.004,36.442 C271.507993,37.0580031 270.199006,37.9159945 269.077,39.016 C267.954994,40.1160055 267.053003,41.4359923 266.371,42.976 C265.688997,44.5160077 265.282001,46.187991 265.15,47.992 L290.428,47.992 Z M316.498,67.66 C313.989987,67.66 311.69101,67.1870047 309.601,66.241 C307.51099,65.2949953 305.696008,63.9970082 304.156,62.347 C302.615992,60.6969917 301.417004,58.7940108 300.559,56.638 C299.700996,54.4819892 299.272,52.1720123 299.272,49.708 C299.272,47.2879879 299.700996,45.0110107 300.559,42.877 C301.417004,40.7429893 302.604992,38.873008 304.123,37.267 C305.641008,35.660992 307.455989,34.3850047 309.568,33.439 C311.680011,32.4929953 313.967988,32.02 316.432,32.02 C318.940013,32.02 321.23899,32.4929953 323.329,33.439 C325.41901,34.3850047 327.211993,35.6719919 328.708,37.3 C330.204007,38.9280081 331.369996,40.7979894 332.206,42.91 C333.042004,45.0220106 333.46,47.2659881 333.46,49.642 L333.46,50.698 C333.46,51.0500018 333.438,51.2919993 333.394,51.424 L303.958,51.424 C304.090001,53.2720092 304.518996,54.9769922 305.245,56.539 C305.971004,58.1010078 306.905994,59.4539943 308.05,60.598 C309.194006,61.7420057 310.502993,62.6329968 311.977,63.271 C313.451007,63.9090032 315.023992,64.228 316.696,64.228 C317.796005,64.228 318.895995,64.0740015 319.996,63.766 C321.096006,63.4579985 322.107995,63.0400026 323.032,62.512 C323.956005,61.9839974 324.791996,61.3350038 325.54,60.565 C326.288004,59.7949962 326.859998,58.9480046 327.256,58.024 L331.15,59.08 C330.621997,60.3560064 329.874005,61.5109948 328.906,62.545 C327.937995,63.5790052 326.816006,64.4809961 325.54,65.251 C324.263994,66.0210038 322.856008,66.6149979 321.316,67.033 C319.775992,67.4510021 318.170008,67.66 316.498,67.66 Z M329.17,47.992 C329.037999,46.1439908 328.609004,44.4610076 327.883,42.943 C327.156996,41.4249924 326.233006,40.1160055 325.111,39.016 C323.988994,37.9159945 322.691007,37.0580031 321.217,36.442 C319.742993,35.8259969 318.170008,35.518 316.498,35.518 C314.825992,35.518 313.242007,35.8259969 311.746,36.442 C310.249993,37.0580031 308.941006,37.9159945 307.819,39.016 C306.696994,40.1160055 305.795003,41.4359923 305.113,42.976 C304.430997,44.5160077 304.024001,46.187991 303.892,47.992 L329.17,47.992 Z" id="path-1"></path>
    </defs>
    <g id="MakeCode" stroke="none" stroke-width="1" fill="none" fill-rule="evenodd">
        <g id="BuildBee---4ebed7" transform="translate(-10.000000, -11.000000)" fill-rule="nonzero">
            <path d="M87.4898753,67.9908587 C84.1377843,68.0904139 80.8120663,67.3755232 77.8032182,65.9086313 C75.2614093,64.6023002 73.0714982,62.7133865 71.4158586,60.399197 C69.7991873,58.0716297 68.6421554,55.4618902 68.0059139,52.7079072 C67.3338382,49.8601001 66.9963045,46.9449039 67,44.0203364 L67,20 L73.9305671,20 L73.9305671,44.0203364 C73.9279014,46.2692477 74.1570902,48.5125514 74.6145678,50.7153451 C75.0061419,52.6921586 75.7632097,54.580271 76.847629,56.2845562 C77.8854478,57.8600414 79.293738,59.1625819 80.9516332,60.0803871 C82.9444079,61.099147 85.168222,61.5931848 87.4094046,61.5150318 C89.683352,61.5963514 91.9396786,61.091722 93.9577055,60.0504987 C95.6362302,59.118962 97.0563727,57.7910904 98.0918863,56.1849281 C99.1723689,54.4735639 99.9227273,52.5784158 100.30483,50.5957914 C100.738591,48.4303129 100.957574,46.2280206 100.958654,44.0203364 L100.958654,20 L108,20 L108,44.0203364 C108.008748,47.0407145 107.650763,50.0511866 106.933601,52.9868659 C106.270062,55.7368599 105.078195,58.3346129 103.423068,60.6383045 C101.754289,62.9011397 99.559986,64.7327732 97.0256499,65.978371 C94.0526605,67.3872212 90.7844789,68.076958 87.4898753,67.9908587 L87.4898753,67.9908587 Z" id="Path" fill="#000000"></path>
            <rect id="Rectangle" fill="#000000" x="118" y="20" width="7" height="48"></rect>
            <polygon id="Path" fill="#000000" points="135 68 135 20 141.924329 20 141.924329 61.542511 168 61.542511 168 68"></polygon>
            <path d="M172,67.9977932 L172,20.0051685 L188.800868,20.0051685 C192.261234,19.9347878 195.698216,20.5838794 198.891479,21.9108318 C201.666396,23.0941084 204.148963,24.8635299 206.16681,27.0962418 C208.127783,29.325887 209.61714,31.9250845 210.546136,34.7389544 C211.523065,37.7144624 212.013642,40.8264322 211.999184,43.9563467 C212.024417,47.2934707 211.464421,50.6094415 210.344323,53.7554678 C209.324979,56.5873899 207.727486,59.179198 205.652189,61.368091 C203.581026,63.4974401 201.081337,65.1686668 198.316315,66.2726664 C195.279834,67.4549431 192.041533,68.0407966 188.780687,67.9977932 L172,67.9977932 Z M188.781128,60.9800018 C191.194435,61.0276499 193.590968,60.57457 195.815431,59.6501213 C197.758661,58.824769 199.490221,57.5812047 200.883373,56.0104482 C202.258098,54.3878341 203.29176,52.5115624 203.924139,50.490944 C204.660487,48.2091477 205.023178,45.8260882 204.998542,43.4315782 C205.026331,41.0156733 204.656637,38.6113211 203.903867,36.3122177 C203.235399,34.2930156 202.163544,32.426433 200.751607,30.8227109 C199.351221,29.2820557 197.619779,28.0693214 195.683665,27.2730297 C193.476756,26.3904601 191.111369,25.9584627 188.730449,26.0031438 L179,26.0031438 L179,61 L188.781128,60.9800018 Z" id="Shape" fill="#000000"></path>
            <g id="B" transform="translate(10.000000, 11.000000)" fill="#000000">
                <path d="M41.3455688,16.5518263 C41.4125367,17.7536303 41.1945935,18.9541495 40.7108032,20.0483712 C42.8718347,20.5915178 44.8996839,21.5968581 46.6644671,23 C47.5584224,20.9776348 48.0141818,18.776599 48,16.5518263 C47.9875947,7.41126385 40.8439386,0.00625209173 32.0320248,1.77635684e-15 L16.2832705,1.77635684e-15 C14.4699703,1.77635684e-15 13,1.52479527 13,3.40572557 L13,19.5148075 L19.6431507,19.5148075 L19.6431507,6.90227048 L32.0320248,6.90227048 C37.1714822,6.9022668 41.3395295,11.2206879 41.3455688,16.5518263 Z" id="Path"></path>
                <path d="M51.958997,39.3629518 C51.200358,30.5929893 43.8987441,23.8966047 35.2088368,24.0012088 L-7.10542736e-15,24.0803931 L-7.10542736e-15,30.7544935 L35.2535039,30.7544935 C38.1331573,30.8006062 40.8719726,32.024625 42.8469098,34.1481038 C44.6714505,36.2250087 45.5078295,39.0064976 45.1360984,41.7611031 C44.3988671,46.6262257 40.2232448,50.1890439 35.3651716,50.0980725 L19.4525194,50.0980725 L19.4525194,36.1503339 L12.6631211,36.1503339 L12.6631211,56.9984136 L35.1530029,56.9984136 C39.54176,57.0587347 43.7833884,55.396763 46.9897828,52.3604795 C50.4793609,48.9972471 52.3020358,44.2298399 51.958997,39.3629518 Z" id="Path"></path>
            </g>
            <g id="Bee">
                <use fill="#FFFFFF" xlink:href="#path-1"></use>
                <use fill="#000000" xlink:href="#path-1"></use>
            </g>
        </g>
    </g>
</svg>