<?xml version="1.0" encoding="UTF-8"?>
<svg width="256px" height="256px" viewBox="0 0 256 256" version="1.1" xmlns="http://www.w3.org/2000/svg" xmlns:xlink="http://www.w3.org/1999/xlink">
    <!-- Generator: Sketch 64 (93537) - https://sketch.com -->
    <title>logo.square.blue</title>
    <desc>Created with Sketch.</desc>
    <g id="MakeCode" stroke="none" stroke-width="1" fill="none" fill-rule="evenodd">
        <g id="icon-thicker-teal-on-white" fill="#4EBED7" fill-rule="nonzero">
            <g id="Group" transform="translate(3.000000, 21.000000)">
                <path d="M159.438596,93.8666667 C156.294737,91.3964912 152.701754,89.8245614 148.884211,88.9263158 L145.964912,88.2526316 L147.087719,85.7824561 C147.761404,84.2105263 148.210526,82.1894737 148.210526,80.3929825 C148.210526,71.6350877 141.249123,64.6736842 132.715789,64.6736842 L111.157895,64.6736842 L111.157895,88.477193 L94.0912281,88.477193 L94.0912281,56.1403509 C94.0912281,53.6701754 94.9894737,51.6491228 96.5614035,49.8526316 C98.1333333,48.2807018 100.378947,47.3824561 102.624561,47.3824561 L132.715789,47.3824561 C150.680702,47.3824561 165.501754,62.2035088 165.501754,80.1684211 C165.501754,84.6596491 164.603509,88.9263158 162.807018,92.9684211 L161.684211,95.6631579 L159.438596,93.8666667 Z" id="Path"></path>
                <path d="M94.0912281,158.989474 L94.0912281,115.873684 L111.382456,115.873684 L111.382456,141.698246 L139.452632,141.698246 C147.312281,141.698246 154.049123,135.859649 155.17193,128.224561 C155.845614,123.733333 154.498246,119.242105 151.354386,115.873684 C148.210526,112.505263 143.494737,110.259649 138.778947,110.259649 L9.02105263,110.259649 L-1.42108547e-14,110.259649 L62.2035088,2.84217094e-14 L186.684211,2.84217094e-14 L176.886842,17.2912281 L72.0842105,17.2912281 L28.2947368,93.4175439 L139.003509,93.1929825 C156.519298,93.1929825 170.666667,106.217544 172.238596,123.733333 C172.912281,133.614035 169.319298,143.045614 162.133333,149.782456 C155.845614,155.621053 147.536842,158.764912 139.003509,158.764912 L94.0912281,158.989474 Z" id="Path"></path>
                <polygon id="Path" points="181.670175 186.610526 229.726316 103.522807 187.508772 24.7491228 196.491228 10.1052632 249.712281 103.522807 191.775439 203.901754"></polygon>
                <polygon id="Path" points="57.7122807 213.557895 5.61403509 123.284211 24.3350877 123.284211 67.5929825 196.266667 171.15614 196.266667 183.017544 213.557895"></polygon>
            </g>
        </g>
    </g>
</svg>