<?xml version="1.0" encoding="UTF-8"?>
<svg width="114px" height="103px" viewBox="0 0 114 103" version="1.1" xmlns="http://www.w3.org/2000/svg" xmlns:xlink="http://www.w3.org/1999/xlink">
    <!-- Generator: Sketch 54.1 (76490) - https://sketchapp.com -->
    <title>icon-thicker-teal-on-white@3x</title>
    <desc>Created with Sketch.</desc>
    <g id="Page-1" stroke="none" stroke-width="1" fill="none" fill-rule="evenodd">
        <g id="Thicker" transform="translate(0.000000, -10.000000)" fill="#4EBED7" fill-rule="nonzero">
            <g id="icon-thicker-teal-on-white" transform="translate(0.000000, 10.000000)">
                <path d="M73,47.8 C71.6,46.7 70,46 68.3,45.6 L67,45.3 L67.5,44.2 C67.8,43.5 68,42.6 68,41.8 C68,37.9 64.9,34.8 61.1,34.8 L51.5,34.8 L51.5,45.4 L43.9,45.4 L43.9,31 C43.9,29.9 44.3,29 45,28.2 C45.7,27.5 46.7,27.1 47.7,27.1 L61.1,27.1 C69.1,27.1 75.7,33.7 75.7,41.7 C75.7,43.7 75.3,45.6 74.5,47.4 L74,48.6 L73,47.8 Z" id="Path"></path>
                <path d="M43.9,76.8 L43.9,57.6 L51.6,57.6 L51.6,69.1 L64.1,69.1 C67.6,69.1 70.6,66.5 71.1,63.1 C71.4,61.1 70.8,59.1 69.4,57.6 C68,56.1 65.9,55.1 63.8,55.1 L6.0171875,55.1 L2,55.1 L29.7,6 L85.1328125,6 L80.7699219,13.7 L34.1,13.7 L14.6,47.6 L63.9,47.5 C71.7,47.5 78,53.3 78.7,61.1 C79,65.5 77.4,69.7 74.2,72.7 C71.4,75.3 67.7,76.7 63.9,76.7 L43.9,76.8 Z" id="Path"></path>
                <polygon id="Path" points="82.9 89.1 104.3 52.1 85.5 17.0210938 89.5 10.5 113.2 52.1 87.4 96.8"></polygon>
                <polygon id="Path" points="27.7 101.1 4.5 60.9 12.8367188 60.9 32.1 93.4 78.2179688 93.4 83.5 101.1"></polygon>
            </g>
        </g>
        <text id="Thicker" fill="#293547" font-family="Raleway-SemiBold, Raleway" font-size="50" font-weight="500">
            <tspan x="-22" y="-22">Thicker</tspan>
            <tspan x="-22" y="37"> </tspan>
        </text>
    </g>
</svg>